<?xml version="1.0" encoding="UTF-8"?>
<svg id="Capa_4" data-name="Capa 4" xmlns="http://www.w3.org/2000/svg" viewBox="0 0 72.05 72.05">
  <defs>
    <style>
      .cls-1 {
        fill: #fff;
      }
    </style>
  </defs>
  <rect class="cls-1" x=".02" y="32.78" width="6.55" height="6.55" rx="3.27" ry="3.27"/>
  <rect class="cls-1" x=".02" y="26.23" width="6.55" height="6.55" rx="3.27" ry="3.27"/>
  <rect class="cls-1" x=".02" y="39.32" width="6.55" height="6.55" rx="3.27" ry="3.27"/>
  <rect class="cls-1" x="6.57" y="32.78" width="6.55" height="6.55" rx="3.27" ry="3.27"/>
  <rect class="cls-1" x="6.57" y="26.23" width="6.55" height="6.55" rx="3.27" ry="3.27"/>
  <rect class="cls-1" x="6.57" y="39.32" width="6.55" height="6.55" rx="3.27" ry="3.27"/>
  <rect class="cls-1" x="13.12" y="32.75" width="6.55" height="6.55" rx="3.27" ry="3.27"/>
  <rect class="cls-1" x="13.12" y="26.21" width="6.55" height="6.55" rx="3.27" ry="3.27"/>
  <rect class="cls-1" x="13.12" y="39.3" width="6.55" height="6.55" rx="3.27" ry="3.27"/>
  <rect class="cls-1" x="6.57" y="45.9" width="6.55" height="6.55" rx="3.27" ry="3.27"/>
  <rect class="cls-1" x="13.12" y="45.9" width="6.55" height="6.55" rx="3.27" ry="3.27"/>
  <rect class="cls-1" x="13.12" y="52.42" width="6.55" height="6.55" rx="3.27" ry="3.27"/>
  <rect class="cls-1" x="19.66" y="52.52" width="6.55" height="6.55" rx="3.27" ry="3.27"/>
  <rect class="cls-1" x="26.21" y="52.52" width="6.55" height="6.55" rx="3.27" ry="3.27"/>
  <rect class="cls-1" x="32.75" y="52.49" width="6.55" height="6.55" rx="3.27" ry="3.27"/>
  <rect class="cls-1" x="19.66" y="45.91" width="6.55" height="6.55" rx="3.27" ry="3.27"/>
  <rect class="cls-1" x="26.21" y="45.91" width="6.55" height="6.55" rx="3.27" ry="3.27"/>
  <rect class="cls-1" x="32.75" y="45.88" width="6.55" height="6.55" rx="3.27" ry="3.27"/>
  <rect class="cls-1" x="39.3" y="45.91" width="6.55" height="6.55" rx="3.27" ry="3.27"/>
  <rect class="cls-1" x="19.66" y="39.3" width="6.55" height="6.55" rx="3.27" ry="3.27"/>
  <rect class="cls-1" x="6.57" y="19.63" width="6.55" height="6.55" rx="3.27" ry="3.27"/>
  <rect class="cls-1" x="13.12" y="19.63" width="6.55" height="6.55" rx="3.27" ry="3.27"/>
  <rect class="cls-1" x=".02" y="19.61" width="6.55" height="6.55" rx="3.27" ry="3.27"/>
  <rect class="cls-1" x="6.57" y="13.12" width="6.55" height="6.55" rx="3.27" ry="3.27"/>
  <rect class="cls-1" x="13.12" y="13.12" width="6.55" height="6.55" rx="3.27" ry="3.27"/>
  <rect class="cls-1" x="19.66" y="13.09" width="6.55" height="6.55" rx="3.27" ry="3.27"/>
  <rect class="cls-1" x="13.12" y="6.54" width="6.55" height="6.55" rx="3.27" ry="3.27"/>
  <rect class="cls-1" x="19.66" y="6.54" width="6.55" height="6.55" rx="3.27" ry="3.27"/>
  <rect class="cls-1" x="26.21" y="6.52" width="6.55" height="6.55" rx="3.27" ry="3.27"/>
  <rect class="cls-1" x="26.21" y="26.23" width="6.55" height="6.55" rx="3.27" ry="3.27"/>
  <rect class="cls-1" x="32.75" y="19.63" width="6.55" height="6.55" rx="3.27" ry="3.27"/>
  <rect class="cls-1" x="32.75" y="32.75" width="6.55" height="6.55" rx="3.27" ry="3.27"/>
  <rect class="cls-1" x="39.3" y="26.27" width="6.55" height="6.55" rx="3.27" ry="3.27"/>
  <rect class="cls-1" x="45.84" y="19.67" width="6.55" height="6.55" rx="3.27" ry="3.27"/>
  <rect class="cls-1" x="45.84" y="32.79" width="6.55" height="6.55" rx="3.27" ry="3.27"/>
  <rect class="cls-1" x="52.39" y="26.27" width="6.55" height="6.55" rx="3.27" ry="3.27"/>
  <rect class="cls-1" x="58.93" y="19.67" width="6.55" height="6.55" rx="3.27" ry="3.27"/>
  <rect class="cls-1" x="58.93" y="32.79" width="6.55" height="6.55" rx="3.27" ry="3.27"/>
  <rect class="cls-1" x="65.48" y="26.21" width="6.55" height="6.55" rx="3.27" ry="3.27"/>
</svg>