<?xml version="1.0" encoding="UTF-8"?>
<svg id="Capa_4" data-name="Capa 4" xmlns="http://www.w3.org/2000/svg" viewBox="0 0 72.05 72.05">
  <defs>
    <style>
      .cls-1 {
        fill: #fff;
      }
    </style>
  </defs>
  <rect class="cls-1" x="13.12" y="32.75" width="6.55" height="6.55" rx="3.27" ry="3.27"/>
  <rect class="cls-1" x="13.12" y="26.2" width="6.55" height="6.55" rx="3.27" ry="3.27"/>
  <rect class="cls-1" x="19.66" y="32.75" width="6.55" height="6.55" rx="3.27" ry="3.27"/>
  <rect class="cls-1" x="19.66" y="26.2" width="6.55" height="6.55" rx="3.27" ry="3.27"/>
  <rect class="cls-1" x="26.21" y="26.2" width="6.55" height="6.55" rx="3.27" ry="3.27"/>
  <rect class="cls-1" x="32.75" y="26.2" width="6.55" height="6.55" rx="3.27" ry="3.27"/>
  <rect class="cls-1" x="39.3" y="26.2" width="6.55" height="6.55" rx="3.27" ry="3.27"/>
  <rect class="cls-1" x="13.12" y="39.29" width="6.55" height="6.55" rx="3.27" ry="3.27"/>
  <rect class="cls-1" x="19.66" y="19.66" width="6.55" height="6.55" rx="3.27" ry="3.27"/>
  <rect class="cls-1" x="26.21" y="19.66" width="6.55" height="6.55" rx="3.27" ry="3.27"/>
  <rect class="cls-1" x="32.75" y="19.66" width="6.55" height="6.55" rx="3.27" ry="3.27"/>
  <rect class="cls-1" x="26.21" y="6.57" width="6.55" height="6.55" rx="3.27" ry="3.27"/>
  <rect class="cls-1" x=".02" y="32.75" width="6.55" height="6.55" rx="3.27" ry="3.27"/>
  <rect class="cls-1" x="45.84" y="13.11" width="6.55" height="6.55" rx="3.27" ry="3.27"/>
  <rect class="cls-1" x="6.57" y="52.38" width="6.55" height="6.55" rx="3.27" ry="3.27"/>
  <rect class="cls-1" x="6.57" y="13.11" width="6.55" height="6.55" rx="3.27" ry="3.27"/>
  <rect class="cls-1" x="26.21" y="45.84" width="6.55" height="6.55" rx="3.27" ry="3.27"/>
  <rect class="cls-1" x="32.75" y="39.29" width="6.55" height="6.55" rx="3.27" ry="3.27"/>
  <rect class="cls-1" x="32.75" y="52.38" width="6.55" height="6.55" rx="3.27" ry="3.27"/>
  <rect class="cls-1" x="39.3" y="45.85" width="6.55" height="6.55" rx="3.27" ry="3.27"/>
  <rect class="cls-1" x="45.84" y="39.3" width="6.55" height="6.55" rx="3.27" ry="3.27"/>
  <rect class="cls-1" x="45.84" y="52.38" width="6.55" height="6.55" rx="3.27" ry="3.27"/>
  <rect class="cls-1" x="52.39" y="45.85" width="6.55" height="6.55" rx="3.27" ry="3.27"/>
  <rect class="cls-1" x="58.93" y="39.3" width="6.55" height="6.55" rx="3.27" ry="3.27"/>
  <rect class="cls-1" x="58.93" y="52.39" width="6.55" height="6.55" rx="3.27" ry="3.27"/>
  <rect class="cls-1" x="65.48" y="45.84" width="6.55" height="6.55" rx="3.27" ry="3.27"/>
</svg>